<svg xmlns="http://www.w3.org/2000/svg" viewBox="0 0 357.92 82.45"><g id="Capa_2" data-name="Capa 2"><g id="Capa_1-2" data-name="Capa 1"><path d="M281.79,21.5,295.55,4.73l32.9,41.7" fill="none" stroke="#fff" stroke-miterlimit="10" stroke-width="5"/><path d="M309.3,21.5,323.06,4.73,356,46.43" fill="none" stroke="#fff" stroke-miterlimit="10" stroke-width="5"/><path d="M274.51,29.88h-19V48.93h19Z" fill="#a01a16"/><path d="M265,29.88v19" fill="none" stroke="#fff" stroke-miterlimit="10" stroke-width="2.37"/><path d="M255.52,39.4h19" fill="none" stroke="#fff" stroke-miterlimit="10" stroke-width="2.37"/><path d="M232.74,46.43l34.12-41.7,32.87,41.7" fill="none" stroke="#a01a16" stroke-miterlimit="10" stroke-width="5.92"/><path d="M4.84,77.4a5.39,5.39,0,0,1-3.5-1A3.28,3.28,0,0,1,0,73.67a3.53,3.53,0,0,1,.61-2,4.11,4.11,0,0,1,1.81-1.37,7.29,7.29,0,0,1,2.89-.51,5.35,5.35,0,0,1,3.51,1A3.28,3.28,0,0,1,9.75,72,3.33,3.33,0,0,1,10,73.46H8.9a4,4,0,0,1-1,3A4.27,4.27,0,0,1,4.84,77.4Zm3.62-.25v-4L8,71.89V69.21a1.74,1.74,0,0,0-.12-.84,1.91,1.91,0,0,0-.51-.69,3,3,0,0,0-1.69-.45,6,6,0,0,0-1.93.35,6.59,6.59,0,0,0-1.83,1L.4,66.3a6.21,6.21,0,0,1,2.4-1.47A8.86,8.86,0,0,1,6,64.25a7.19,7.19,0,0,1,2.86.56,4.73,4.73,0,0,1,2,1.6,4.74,4.74,0,0,1,.55,2.66v8.1ZM5.71,75a3,3,0,0,0,1.65-.39,1.27,1.27,0,0,0,.45-.44A1,1,0,0,0,8,73.6a1.17,1.17,0,0,0-.63-1,3.6,3.6,0,0,0-1.64-.39,3.53,3.53,0,0,0-1.63.39,1.3,1.3,0,0,0-.46.44,1.07,1.07,0,0,0,0,1.19,1.3,1.3,0,0,0,.46.44A2.77,2.77,0,0,0,5.71,75Z" fill="#a01a16"/><path d="M19.62,77.41a7.14,7.14,0,0,1-3.43-.81,6.18,6.18,0,0,1-2.36-2.29,6.65,6.65,0,0,1-1-3.27v-.28a6.3,6.3,0,0,1,.9-3.36,5.89,5.89,0,0,1,2.44-2.33,7,7,0,0,1,3.41-.82,6.12,6.12,0,0,1,2.66.6,5.15,5.15,0,0,1,2,1.57l-2.1,2.11A2.69,2.69,0,0,0,21,67.68a3.29,3.29,0,0,0-1.41-.28,3.18,3.18,0,0,0-1.65.4,2.82,2.82,0,0,0-1.19,1.13,3.67,3.67,0,0,0-.42,1.77V71a3.31,3.31,0,0,0,.44,1.77A3.15,3.15,0,0,0,18,74a3.48,3.48,0,0,0,1.67.42,3.93,3.93,0,0,0,1.39-.26,3.46,3.46,0,0,0,1.25-.86l2,2a5.5,5.5,0,0,1-2,1.57A6.22,6.22,0,0,1,19.62,77.41Z" fill="#a01a16"/><path d="M31.28,77.41a7.31,7.31,0,0,1-3.46-.81,6.38,6.38,0,0,1-2.38-2.29A6.59,6.59,0,0,1,24.57,71v-.28a6.21,6.21,0,0,1,.89-3.36,6,6,0,0,1,2.38-2.33,7.1,7.1,0,0,1,3.44-.82,6.17,6.17,0,0,1,2.67.6,5.14,5.14,0,0,1,2,1.57l-2.12,2.11a2.57,2.57,0,0,0-1.13-.85,3.31,3.31,0,0,0-1.42-.28,3.21,3.21,0,0,0-1.66.4,2.84,2.84,0,0,0-1.2,1.13A3.67,3.67,0,0,0,28,70.7V71a3.31,3.31,0,0,0,.44,1.77A3.1,3.1,0,0,0,29.66,74a3.44,3.44,0,0,0,1.66.42,4,4,0,0,0,1.4-.26A3.46,3.46,0,0,0,34,73.27l2,2a5.57,5.57,0,0,1-2,1.57A6.23,6.23,0,0,1,31.28,77.41Z" fill="#a01a16"/><path d="M37.11,77.13V73.49h4.28v3.64Z" fill="#a01a16"/><path d="M47.66,82.33V64.51H51v2.93l-.69-.77a5,5,0,0,1,2-1.76,5.3,5.3,0,0,1,2.61-.66,6.15,6.15,0,0,1,3.11.81,6,6,0,0,1,2.21,2.28,7,7,0,0,1,.81,3.35v.41a6.79,6.79,0,0,1-.81,3.39,5.73,5.73,0,0,1-2.16,2.26,6.16,6.16,0,0,1-3.14.79A5.21,5.21,0,0,1,52.48,77a5.42,5.42,0,0,1-1.9-1.59l.74-.83v7.92Zm6.59-7.92a3.41,3.41,0,0,0,1.6-.39A3.08,3.08,0,0,0,57,72.83,3.91,3.91,0,0,0,57.41,71v-.26A3.7,3.7,0,0,0,57,68.87a3.08,3.08,0,0,0-1.13-1.19,3.16,3.16,0,0,0-1.6-.42,3.64,3.64,0,0,0-1.71.42,3.15,3.15,0,0,0-1.2,1.23,4.09,4.09,0,0,0-.42,2,4.14,4.14,0,0,0,.42,2,3.22,3.22,0,0,0,1.2,1.23,3.6,3.6,0,0,0,1.71.35Z" fill="#a01a16"/><path d="M66.42,77.39a5.33,5.33,0,0,1-3.47-1,3.52,3.52,0,0,1-1-1.19,3.38,3.38,0,0,1-.33-1.5,3.48,3.48,0,0,1,.63-2,4,4,0,0,1,1.79-1.36A7.18,7.18,0,0,1,67,69.76a5.43,5.43,0,0,1,3.49,1,3.37,3.37,0,0,1,.88,1.2,3.48,3.48,0,0,1,.27,1.46h-1a4,4,0,0,1-1,3,4.25,4.25,0,0,1-1.49.85A4.19,4.19,0,0,1,66.42,77.39ZM70,77.14v-4l-.42-1.29V69.21a1.73,1.73,0,0,0-.1-.84,1.75,1.75,0,0,0-.49-.69,2.73,2.73,0,0,0-1.65-.45,6.31,6.31,0,0,0-3.81,1.32L62,66.29a6.16,6.16,0,0,1,2.36-1.46,8.7,8.7,0,0,1,3.15-.58,7.14,7.14,0,0,1,2.85.56A4.15,4.15,0,0,1,73,69.07v8.09ZM67.37,75A2.74,2.74,0,0,0,69,74.62a1.13,1.13,0,0,0,.41-.43,1.09,1.09,0,0,0,.15-.56,1.13,1.13,0,0,0-.15-.57,1.1,1.1,0,0,0-.41-.42,3.48,3.48,0,0,0-3.24,0,1.08,1.08,0,0,0-.47.43,1.17,1.17,0,0,0,0,1.2,1.19,1.19,0,0,0,.46.43A2.77,2.77,0,0,0,67.37,75Z" fill="#a01a16"/><path d="M75.61,77.13V64.35h3.25v3.91h-.43A5.32,5.32,0,0,1,79,65.84a2.71,2.71,0,0,1,1.34-1.23,4.6,4.6,0,0,1,1.83-.36H83v3.41H81.77a3.23,3.23,0,0,0-2.14.64,2.2,2.2,0,0,0-.58.8,2.24,2.24,0,0,0-.16,1v7Z" fill="#a01a16"/><path d="M87.92,77.4a5.66,5.66,0,0,1-3.56-1,3.3,3.3,0,0,1-1-1.2,3.25,3.25,0,0,1-.33-1.5,3.42,3.42,0,0,1,.62-2,4.18,4.18,0,0,1,1.84-1.37,7.8,7.8,0,0,1,2.94-.52,5.55,5.55,0,0,1,3.59,1A3.47,3.47,0,0,1,92.93,72a3.28,3.28,0,0,1,.31,1.44h-1a4,4,0,0,1-1,3,4.33,4.33,0,0,1-1.52.83A4.42,4.42,0,0,1,87.92,77.4Zm3.68-.26v-4l-.43-1.29V69.21a1.73,1.73,0,0,0-.13-.84,1.83,1.83,0,0,0-.51-.69,3,3,0,0,0-1.72-.45,6.29,6.29,0,0,0-2.07.35,7,7,0,0,0-1.85,1l-1.57-2.26a6.31,6.31,0,0,1,2.42-1.46,9.15,9.15,0,0,1,3.36-.58,7.48,7.48,0,0,1,2.92.56,4.82,4.82,0,0,1,2.07,1.6,4.62,4.62,0,0,1,.62,2.66v8.09ZM88.89,75a3.08,3.08,0,0,0,1.68-.4,1.19,1.19,0,0,0,.46-.43A1.12,1.12,0,0,0,91,73a1.22,1.22,0,0,0-.47-.43,3.69,3.69,0,0,0-3.34,0,1.19,1.19,0,0,0-.46.43,1.08,1.08,0,0,0-.18.6,1.27,1.27,0,0,0,.18.6,1.19,1.19,0,0,0,.46.43A3,3,0,0,0,88.89,75Z" fill="#a01a16"/><path d="M107.83,77.41a6.93,6.93,0,0,1-3.37-.81,6.22,6.22,0,0,1-2.32-2.29,6.68,6.68,0,0,1-.86-3.27v-.28a6.38,6.38,0,0,1,.88-3.36,5.84,5.84,0,0,1,2.32-2.33,6.76,6.76,0,0,1,3.35-.82,5.94,5.94,0,0,1,2.61.6,5.09,5.09,0,0,1,1.94,1.57l-2.06,2.11a2.57,2.57,0,0,0-1.11-.85,3.16,3.16,0,0,0-1.38-.28,3.07,3.07,0,0,0-1.62.4A2.77,2.77,0,0,0,105,68.93a3.77,3.77,0,0,0-.41,1.77V71a3.39,3.39,0,0,0,.43,1.77A3.08,3.08,0,0,0,106.25,74a3.26,3.26,0,0,0,1.62.42,3.77,3.77,0,0,0,1.36-.26,3.47,3.47,0,0,0,1.23-.86l1.94,2a5.46,5.46,0,0,1-1.94,1.57A6,6,0,0,1,107.83,77.41Z" fill="#a01a16"/><path d="M118,77.39a5.36,5.36,0,0,1-3.48-1,3.49,3.49,0,0,1-1-1.19,3.4,3.4,0,0,1-.32-1.5,3.48,3.48,0,0,1,.61-2,4.14,4.14,0,0,1,1.8-1.37,7.38,7.38,0,0,1,2.87-.52,5.32,5.32,0,0,1,3.5,1,3.46,3.46,0,0,1,.88,1.2,3.33,3.33,0,0,1,.27,1.46h-1a4,4,0,0,1-1,3,4.22,4.22,0,0,1-1.48.82A4.14,4.14,0,0,1,118,77.39Zm3.6-.25v-4l-.4-1.29V69.21a1.83,1.83,0,0,0-.65-1.53,2.84,2.84,0,0,0-1.68-.45,6,6,0,0,0-2,.35,6.15,6.15,0,0,0-1.8,1l-1.56-2.26a6.2,6.2,0,0,1,2.37-1.46,8.67,8.67,0,0,1,3.15-.58,7.2,7.2,0,0,1,2.87.56,4.78,4.78,0,0,1,2,1.6,4.72,4.72,0,0,1,.72,2.66V77ZM119,75a2.92,2.92,0,0,0,1.64-.4,1.16,1.16,0,0,0,.45-.43,1.31,1.31,0,0,0,.18-.6,1.16,1.16,0,0,0-.17-.6,1.12,1.12,0,0,0-.46-.43,3.52,3.52,0,0,0-3.26,0,1.14,1.14,0,0,0-.44.43,1.15,1.15,0,0,0-.16.6,1.11,1.11,0,0,0,.16.59,1.32,1.32,0,0,0,.44.44A2.88,2.88,0,0,0,119,75Z" fill="#a01a16"/><path d="M127,77.13V64.35h3.47v3.91H130a4.89,4.89,0,0,1,.58-2.42,2.72,2.72,0,0,1,1.4-1.23,5.33,5.33,0,0,1,2-.36h1v3.41h-1.28a3.65,3.65,0,0,0-2.27.64,2.23,2.23,0,0,0-.62.81,2.19,2.19,0,0,0-.17,1v7Z" fill="#a01a16"/><path d="M135.79,82.33V64.51h3.27v2.93l-.69-.77a5,5,0,0,1,2-1.76,5.31,5.31,0,0,1,2.62-.66,6.22,6.22,0,0,1,3.13.81,6,6,0,0,1,2.2,2.28,6.77,6.77,0,0,1,.83,3.35v.41a6.79,6.79,0,0,1-.81,3.39,5.71,5.71,0,0,1-2.18,2.26,6.2,6.2,0,0,1-3.15.79,5.29,5.29,0,0,1-2.5-.59,5.36,5.36,0,0,1-1.91-1.59l.73-.83v7.92Zm6.63-7.92A3.4,3.4,0,0,0,144,74a3.06,3.06,0,0,0,1.15-1.19,3.8,3.8,0,0,0,.43-1.86v-.26a3.7,3.7,0,0,0-.43-1.84A2.94,2.94,0,0,0,144,67.69a3.2,3.2,0,0,0-1.6-.43,3.6,3.6,0,0,0-1.73.42,3,3,0,0,0-1.2,1.23,4.09,4.09,0,0,0-.43,2,4,4,0,0,0,.43,2,3,3,0,0,0,1.2,1.23,3.56,3.56,0,0,0,1.73.35Z" fill="#a01a16"/><path d="M152,77.13V66l1.59,1.52h-3.83V64.61h5.77V77.13Zm-.14-14.9V58.65h3.89v3.58Z" fill="#a01a16"/><path d="M157.75,77.13V64.57h3.31v3.49h-.9a4.74,4.74,0,0,1,.78-2A3.58,3.58,0,0,1,162.11,65a4.88,4.88,0,0,1,1.38-.56,6.16,6.16,0,0,1,1.21-.15,4.44,4.44,0,0,1,1.88.32,4.37,4.37,0,0,1,1.57,1.08,5.54,5.54,0,0,1,1.28,3.94v7.51H166V70.17a3,3,0,0,0-.6-2.11,2.16,2.16,0,0,0-.76-.49,2.08,2.08,0,0,0-.89-.14,2.58,2.58,0,0,0-1.3.32,2.3,2.3,0,0,0-.89.94,3.09,3.09,0,0,0-.34,1.58v6.86Z" fill="#a01a16"/><path d="M170.58,67.47V64.6h8.27v2.87Zm6.2,9.66a5.35,5.35,0,0,1-1.44-.16A3.47,3.47,0,0,1,174,76.4a3.09,3.09,0,0,1-1-1.18,4.43,4.43,0,0,1-.38-2V61.45h3.46v12a.54.54,0,0,0,0,.28.66.66,0,0,0,.17.23.71.71,0,0,0,.52.22h2V77Z" fill="#a01a16"/><path d="M186.12,77.4a6.87,6.87,0,0,1-3.48-.81,5.87,5.87,0,0,1-2.37-2.26,6.8,6.8,0,0,1-.85-3.41v-.26a6.82,6.82,0,0,1,.79-3.25,6,6,0,0,1,2.22-2.3,6.41,6.41,0,0,1,3.32-.86,6,6,0,0,1,3.43,1,5.27,5.27,0,0,1,2.06,2.65,7.89,7.89,0,0,1,.33,4H182V69.59h7.76l-1.61,1.17a4.57,4.57,0,0,0,0-2.08,2.47,2.47,0,0,0-.86-1.29,2.39,2.39,0,0,0-1.46-.46,2.63,2.63,0,0,0-1.61.5,3,3,0,0,0-.92,1.33,5.34,5.34,0,0,0-.31,2v.63a3.42,3.42,0,0,0,.39,1.69,2.73,2.73,0,0,0,1.13,1.13,3.73,3.73,0,0,0,1.83.42,3.94,3.94,0,0,0,1.63-.3,3.8,3.8,0,0,0,1.15-.79l2.06,2A5,5,0,0,1,189.12,77,8.23,8.23,0,0,1,186.12,77.4Z" fill="#a01a16"/><path d="M193.4,77.13V64.35h3.29v3.92h-.44a5.34,5.34,0,0,1,.55-2.43,2.81,2.81,0,0,1,1.34-1.23,5,5,0,0,1,2-.36h1v3.41h-1.28a3.26,3.26,0,0,0-2.17.65,2.06,2.06,0,0,0-.59.8,2.18,2.18,0,0,0-.16,1v7Z" fill="#a01a16"/><path d="M203.41,77.13V65.84l1.65,1.53h-4v-2.9h6V77.13Zm0-14.47,2.32-4.29h4.21l-2.86,4.29Z" fill="#a01a16"/><path d="M213.43,77.35a5.69,5.69,0,0,1-3.59-1,3.43,3.43,0,0,1-1-1.19,3.38,3.38,0,0,1-.34-1.49,3.31,3.31,0,0,1,.65-2A4,4,0,0,1,211,70.3a7.66,7.66,0,0,1,2.92-.52,5.55,5.55,0,0,1,3.59,1,3.3,3.3,0,0,1,.9,1.2,3.16,3.16,0,0,1,.28,1.45h-1a3.31,3.31,0,0,1-.18,1.62,3.53,3.53,0,0,1-.92,1.37,3.66,3.66,0,0,1-1.46.83,3.92,3.92,0,0,1-1.7.13Zm3.68-.26v-4l-.43-1.28V69.19a1.64,1.64,0,0,0-.14-.84,1.72,1.72,0,0,0-.52-.68,2.92,2.92,0,0,0-1.7-.45,6.61,6.61,0,0,0-3.92,1.32l-1.6-2.25a6.69,6.69,0,0,1,2.43-1.46,9.36,9.36,0,0,1,3.23-.58,7.57,7.57,0,0,1,2.94.56,4.65,4.65,0,0,1,2.08,1.6,4.38,4.38,0,0,1,.72,2.6V77ZM214.38,75a3.16,3.16,0,0,0,1.68-.39,1.3,1.3,0,0,0,.41-.43,1.22,1.22,0,0,0,.14-.56,1.19,1.19,0,0,0-.14-.56,1.21,1.21,0,0,0-.41-.43,3.36,3.36,0,0,0-1.7-.4,3.29,3.29,0,0,0-1.66.4,1.19,1.19,0,0,0-.46.43,1.15,1.15,0,0,0-.16.6,1.21,1.21,0,0,0,.16.59,1.19,1.19,0,0,0,.46.43A3,3,0,0,0,214.38,75Z" fill="#a01a16"/><path d="M232.53,77.41a6,6,0,0,1-3.08-.79,5.62,5.62,0,0,1-2.17-2.26,6.85,6.85,0,0,1-.8-3.38v-.26a6.69,6.69,0,0,1,.82-3.34,5.75,5.75,0,0,1,2.19-2.24,6,6,0,0,1,3.06-.81,5.18,5.18,0,0,1,2.48.59,5.35,5.35,0,0,1,1.83,1.61l-.71.81v-9h3.45V77.15h-3.08V74.07l.68.73a5.86,5.86,0,0,1-2,2A5.23,5.23,0,0,1,232.53,77.41Zm.56-3a3.37,3.37,0,0,0,1.68-.41A3,3,0,0,0,236,72.78a4.88,4.88,0,0,0,0-4,3.17,3.17,0,0,0-1.18-1.23,3.37,3.37,0,0,0-1.68-.41,3.24,3.24,0,0,0-1.58.41,3,3,0,0,0-1.14,1.19,3.69,3.69,0,0,0-.42,1.84v.46a3.9,3.9,0,0,0,.42,1.86,2.94,2.94,0,0,0,1.14,1.18A3.31,3.31,0,0,0,233.09,74.42Z" fill="#a01a16"/><path d="M247.79,77.4a6.69,6.69,0,0,1-3.37-.81,5.8,5.8,0,0,1-2.27-2.26,6.69,6.69,0,0,1-.84-3.41v-.26a6.69,6.69,0,0,1,.78-3.25,5.75,5.75,0,0,1,2.21-2.3,6,6,0,0,1,3.21-.86,5.76,5.76,0,0,1,3.34,1,5.22,5.22,0,0,1,2,2.65,8.24,8.24,0,0,1,.33,4H243.8V69.59h7.51l-1.55,1.17a4.57,4.57,0,0,0,0-2.08,2.34,2.34,0,0,0-.84-1.29,2.23,2.23,0,0,0-1.41-.46,2.43,2.43,0,0,0-1.54.5,3,3,0,0,0-.91,1.33,5.54,5.54,0,0,0-.3,2v.63a3.67,3.67,0,0,0,.38,1.69,2.75,2.75,0,0,0,1.11,1.13,3.46,3.46,0,0,0,1.75.42,3.71,3.71,0,0,0,1.58-.3,3.51,3.51,0,0,0,1.11-.79l2,2a4.92,4.92,0,0,1-2,1.49A7.73,7.73,0,0,1,247.79,77.4Z" fill="#a01a16"/><path d="M264.06,77.4a5.38,5.38,0,0,1-3.49-1,3.43,3.43,0,0,1-1-1.2,3.35,3.35,0,0,1-.32-1.5,3.53,3.53,0,0,1,.61-2,4.08,4.08,0,0,1,1.8-1.37,7.24,7.24,0,0,1,2.88-.51,5.32,5.32,0,0,1,3.5,1A3.37,3.37,0,0,1,269,72a3.33,3.33,0,0,1,.27,1.46h-1.11a4,4,0,0,1-1,3A4.25,4.25,0,0,1,264.06,77.4Zm3.6-.25v-4l-.42-1.29V69.21a1.87,1.87,0,0,0-.12-.84,1.91,1.91,0,0,0-.51-.69,3,3,0,0,0-1.68-.45,6.1,6.1,0,0,0-2,.35,6.67,6.67,0,0,0-1.82,1l-1.54-2.26a6.22,6.22,0,0,1,2.37-1.47,8.76,8.76,0,0,1,3.16-.58,7.28,7.28,0,0,1,2.88.56,4.81,4.81,0,0,1,2,1.6,4.68,4.68,0,0,1,.71,2.62v8.1ZM265,75a2.91,2.91,0,0,0,1.64-.39,1.27,1.27,0,0,0,.45-.44,1.23,1.23,0,0,0,.18-.59,1.17,1.17,0,0,0-.63-1,3.6,3.6,0,0,0-3.26,0,1.3,1.3,0,0,0-.46.44,1.13,1.13,0,0,0-.17.6,1.23,1.23,0,0,0,.18.59,1.27,1.27,0,0,0,.45.44A2.79,2.79,0,0,0,265,75Z" fill="#a01a16"/><path d="M277,77.13a4.37,4.37,0,0,1-2.94-.95,3.45,3.45,0,0,1-.85-1.22,3.26,3.26,0,0,1-.24-1.45V59.68l1.56,1.52H271V58.37h5.53V73.59a.66.66,0,0,0,.2.49.66.66,0,0,0,.24.17.71.71,0,0,0,.29,0h1.44v2.83Z" fill="#a01a16"/><path d="M284.47,77.41a5.59,5.59,0,0,1-2.54-.57,4.08,4.08,0,0,1-1.75-1.74,5.63,5.63,0,0,1-.65-2.87v-8H283v7.29a3.45,3.45,0,0,0,.3,1.58,2,2,0,0,0,.83.85,2.4,2.4,0,0,0,1.15.26,2.6,2.6,0,0,0,1.28-.3,2.24,2.24,0,0,0,.89-.94,3.09,3.09,0,0,0,.32-1.55V64.25h3.47V77.14h-3V73.56h1a5.33,5.33,0,0,1-.8,2,4.16,4.16,0,0,1-1.25,1.15,4.69,4.69,0,0,1-1.39.57A5.44,5.44,0,0,1,284.47,77.41Z" fill="#a01a16"/><path d="M293.79,77.05V64.51h3.35V68h-1a5,5,0,0,1,1.09-2.32,4.1,4.1,0,0,1,1.68-1.1,5.43,5.43,0,0,1,1.78-.32,4.11,4.11,0,0,1,4.21,3.25h-1.37a4.55,4.55,0,0,1,1.41-2,4.66,4.66,0,0,1,1.82-.94,6.25,6.25,0,0,1,1.66-.26,4.78,4.78,0,0,1,1.84.31,4.51,4.51,0,0,1,1.56,1,5.25,5.25,0,0,1,1.06,1.77,4.83,4.83,0,0,1,.27,2v7.68h-3.48V69.89a2.64,2.64,0,0,0-.58-2,2.16,2.16,0,0,0-1.6-.59,2.3,2.3,0,0,0-.9.15,2.23,2.23,0,0,0-.76.5,2.56,2.56,0,0,0-.64,1.85V77h-3.51V69.89a2.64,2.64,0,0,0-.58-2,2,2,0,0,0-.71-.46,2,2,0,0,0-.83-.13,2.4,2.4,0,0,0-.92.15,2.22,2.22,0,0,0-.78.5,2.45,2.45,0,0,0-.52.86,2.37,2.37,0,0,0-.15,1V77Z" fill="#a01a16"/><path d="M316.46,77.13V66L318,67.48h-3.68V64.61h5.59V77.13Zm-.17-14.9V58.65H320v3.58Z" fill="#a01a16"/><path d="M322.3,77.13V64.57h3.33v3.49h-.92a5.42,5.42,0,0,1,.78-2A3.58,3.58,0,0,1,326.68,65a4.8,4.8,0,0,1,1.35-.55,5.76,5.76,0,0,1,1.24-.15,4.38,4.38,0,0,1,1.86.32,4.25,4.25,0,0,1,1.56,1.08A5.55,5.55,0,0,1,334,69.6v7.51h-3.45V70.17a3,3,0,0,0-.62-2.11,2,2,0,0,0-.75-.49,2.13,2.13,0,0,0-.9-.14,2.47,2.47,0,0,0-1.27.32,2.17,2.17,0,0,0-.91.94,3.31,3.31,0,0,0-.34,1.58v6.86Z" fill="#a01a16"/><path d="M337.41,77.13V66L339,67.48h-3.86V64.61h5.78V77.13Zm-.17-14.9V58.65h3.89v3.58Z" fill="#a01a16"/><path d="M349.27,77.41a7.5,7.5,0,0,1-3.44-.81,6.33,6.33,0,0,1-2.39-2.29,6.5,6.5,0,0,1-.89-3.38v-.26a6.47,6.47,0,0,1,.89-3.35,6.35,6.35,0,0,1,2.39-2.24,7.48,7.48,0,0,1,6.85,0,6,6,0,0,1,2.39,2.28,6.47,6.47,0,0,1,.89,3.35V71a6.5,6.5,0,0,1-.89,3.38,6.16,6.16,0,0,1-2.39,2.28A7.06,7.06,0,0,1,349.27,77.41Zm0-3A3.25,3.25,0,0,0,351,74a2.94,2.94,0,0,0,1.12-1.25,3.72,3.72,0,0,0,.4-1.79v-.26a3.7,3.7,0,0,0-.4-1.79A3,3,0,0,0,351,67.66a3.15,3.15,0,0,0-1.7-.43,3,3,0,0,0-1.67.45,3.26,3.26,0,0,0-1.14,1.22,3.51,3.51,0,0,0-.42,1.77v.26a3.63,3.63,0,0,0,.42,1.79A3.19,3.19,0,0,0,347.6,74,3.1,3.1,0,0,0,349.27,74.41Z" fill="#a01a16"/><path d="M0,45.77V10.55H13.53a20.66,20.66,0,0,1,9.51,2,14.32,14.32,0,0,1,6.14,6,20,20,0,0,1,2.16,9.75,19.85,19.85,0,0,1-2.09,9.52,13.71,13.71,0,0,1-6,5.92,21,21,0,0,1-9.63,2Zm8.06-7.41h5.57a10.41,10.41,0,0,0,5.6-1.3,7.33,7.33,0,0,0,3-3.58,13.89,13.89,0,0,0,.92-5.27,14.22,14.22,0,0,0-.89-5.2,7.45,7.45,0,0,0-3-3.66A10.92,10.92,0,0,0,13.38,18H8.06Z" fill="#fff"/><path d="M32.34,45.77,46.27,10.55h8.56L68.61,45.77H59.9L58,40.3H43l-2,5.47ZM45.52,33h9.9L50.55,19.35Z" fill="#fff"/><path d="M73,45.77V10.55h8.06V38.36H98.46v7.41Z" fill="#fff"/><path d="M101.24,45.77l13.93-35.22h8.56l13.78,35.22H128.8l-1.94-5.47h-15l-2,5.47ZM114.43,33h9.9l-4.88-13.63Z" fill="#fff"/><path d="M141.94,45.77V10.55h10.45l9,16.22,9-16.22h10V45.77h-8.11V21.69l-9.41,16.67H159.6L150,21.69V45.77Z" fill="#fff"/><path d="M184.77,45.77,198.7,10.55h8.56L221,45.77h-8.71l-1.94-5.47h-15l-2,5.47ZM198,33h9.9L203,19.35Z" fill="#fff"/></g></g></svg>